# Blender 4.4.0
# www.blender.org
mtllib room_1.mtl
g TABLE_B306686B929E46FC3FCBAE583FFD653B_TABLE_B306686B929E46FC3FCBAE583FFD653B_Mesh
v 0.108791 0.043827 1.605370
v -2.015305 0.043827 -1.070799
v -2.737108 0.043827 -0.497899
v -0.613012 0.043827 2.178270
v 0.108791 1.051200 1.605370
v -2.015305 1.051200 -1.070799
v -2.737108 1.051200 -0.497899
v -0.613012 1.051200 2.178270
vn -0.0000 1.0000 -0.0000
vn 0.7833 -0.0000 -0.6217
vn -0.7833 -0.0000 0.6217
vn -0.6217 -0.0000 -0.7833
s 0
f 1//1 2//1 3//1 4//1
f 5//1 6//1 7//1 8//1
f 1//2 2//2 6//2 5//2
f 3//3 4//3 8//3 7//3
f 1//4 4//4 8//4 5//4
f 2//4 3//4 7//4 6//4
g FLOOR_9D2151F02C2E6E84F70D929FCB8ECCAA_FLOOR_9D2151F02C2E6E84F70D929FCB8ECCAA_Mesh
v -1.221092 0.043743 -4.094440
v -4.560417 0.043743 -1.445373
v 0.871773 0.043743 5.399814
v 3.915099 0.043743 2.982913
v -0.668962 0.043743 -2.831108
v -0.491743 0.043743 -2.971680
vn -0.0000 1.0000 -0.0000
s 0
f 9//5 10//5 11//5 12//5 13//5 14//5
g DOOR_FRAME_0F15E0353FE7047978CC271D4DC5EA85_DOOR_FRAME_0F15E0353FE7047978CC271D4DC5EA85_Mesh
v 2.055017 2.837955 0.624861
v 0.538093 2.837944 -1.299053
v 0.538112 0.037943 -1.299051
v 2.055036 0.037954 0.624863
vn -0.7853 -0.0000 0.6192
s 0
f 15//6 16//6 17//6 18//6
g WALL_FACE_9B76BA527DEB9C312AB3F6ADAA778235_WALL_FACE_9B76BA527DEB9C312AB3F6ADAA778235_Mesh
v 3.915100 3.981993 2.982908
v -0.668983 3.981991 -2.831132
v -0.668982 0.043773 -2.831132
v 3.915101 0.043775 2.982908
vn -0.7853 -0.0000 0.6191
s 0
f 19//7 20//7 21//7 22//7
g TABLE_F56023C8388938B8DFD026486FC9492A_TABLE_F56023C8388938B8DFD026486FC9492A_Mesh
v 0.841235 0.045470 2.333650
v 0.296966 0.045470 1.647915
v -0.355506 0.045470 2.165784
v 0.188764 0.045470 2.851519
v 0.841235 1.057275 2.333650
v 0.296966 1.057275 1.647915
v -0.355506 1.057275 2.165784
v 0.188764 1.057275 2.851519
vn -0.0000 1.0000 -0.0000
vn 0.7833 -0.0000 -0.6217
vn -0.7833 -0.0000 0.6217
vn -0.6217 -0.0000 -0.7833
s 0
f 23//8 24//8 25//8 26//8
f 27//8 28//8 29//8 30//8
f 23//9 24//9 28//9 27//9
f 25//10 26//10 30//10 29//10
f 23//11 26//11 30//11 27//11
f 24//11 25//11 29//11 28//11
g WALL_FACE_DE94E43AA59165CC36B8FF2F12DABA22_WALL_FACE_DE94E43AA59165CC36B8FF2F12DABA22_Mesh
v -4.560418 3.982052 -1.445366
v 0.871764 3.982052 5.399785
v 0.871765 0.043712 5.399785
v -4.560417 0.043712 -1.445366
vn 0.7833 -0.0000 -0.6216
s 0
f 31//12 32//12 33//12 34//12
g CEILING_9F9BB66C1171BCC67A3E62C1357DA524_CEILING_9F9BB66C1171BCC67A3E62C1357DA524_Mesh
v -0.491762 3.982017 -2.971704
v -0.668981 3.982017 -2.831134
v 3.915085 3.982017 2.982883
v 0.871763 3.982017 5.399787
v -4.560433 3.982017 -1.445394
v -1.221112 3.982017 -4.094465
vn -0.0000 -1.0000 -0.0000
s 0
f 35//13 36//13 37//13 38//13 39//13 40//13
g TABLE_1269670D0FCC045AEA54BE6B3FB9CAD2_TABLE_1269670D0FCC045AEA54BE6B3FB9CAD2_Mesh
v -0.688233 0.047737 2.894528
v -0.972818 0.047737 2.535958
v -1.234731 0.047737 2.743829
v -0.950146 0.047737 3.102399
v -0.688233 0.923838 2.894528
v -0.972818 0.923838 2.535958
v -1.234731 0.923838 2.743829
v -0.950146 0.923838 3.102399
vn -0.0000 1.0000 -0.0000
vn 0.7833 -0.0000 -0.6217
vn -0.7833 -0.0000 0.6217
vn -0.6217 -0.0000 -0.7833
s 0
f 41//14 42//14 43//14 44//14
f 45//14 46//14 47//14 48//14
f 41//15 42//15 46//15 45//15
f 43//16 44//16 48//16 47//16
f 41//17 44//17 48//17 45//17
f 42//17 43//17 47//17 46//17
g TABLE_CBCDE13285FFE81891553ECE1C618CE4_TABLE_CBCDE13285FFE81891553ECE1C618CE4_Mesh
v 1.745516 0.046074 3.216586
v 0.993707 0.046074 2.270067
v 0.348533 0.046074 2.782521
v 1.100342 0.046074 3.729040
v 1.745516 1.052992 3.216586
v 0.993707 1.052992 2.270067
v 0.348533 1.052992 2.782521
v 1.100342 1.052992 3.729040
vn -0.0000 1.0000 -0.0000
vn 0.7830 -0.0000 -0.6220
vn -0.7830 -0.0000 0.6220
vn -0.6220 -0.0000 -0.7830
s 0
f 49//18 50//18 51//18 52//18
f 53//18 54//18 55//18 56//18
f 49//19 50//19 54//19 53//19
f 51//20 52//20 56//20 55//20
f 49//21 52//21 56//21 53//21
f 50//21 51//21 55//21 54//21
g WALL_FACE_E19D86519A01A95E4B6A949A225BC8AB_WALL_FACE_E19D86519A01A95E4B6A949A225BC8AB_Mesh
v -0.668966 3.981991 -2.831107
v -0.491763 3.981991 -2.971703
v -0.491763 0.043718 -2.971703
v -0.668966 0.043718 -2.831107
vn -0.6215 -0.0000 -0.7834
s 0
f 57//22 58//22 59//22 60//22
g TABLE_407FC3BD9E46958ABC2AEA10F59B2288_TABLE_407FC3BD9E46958ABC2AEA10F59B2288_Mesh
v -0.428562 0.049508 3.562938
v -0.943566 0.049508 3.971700
v -0.707030 0.049508 4.269715
v -0.192025 0.049508 3.860953
v -0.428562 0.951763 3.562938
v -0.943566 0.951763 3.971700
v -0.707030 0.951763 4.269715
v -0.192025 0.951763 3.860953
vn -0.0000 1.0000 -0.0000
vn -0.6217 -0.0000 -0.7833
vn 0.6217 -0.0000 0.7833
vn -0.7833 -0.0000 0.6217
s 0
f 61//23 62//23 63//23 64//23
f 65//23 66//23 67//23 68//23
f 61//24 62//24 66//24 65//24
f 63//25 64//25 68//25 67//25
f 61//26 64//26 68//26 65//26
f 62//26 63//26 67//26 66//26
g WALL_FACE_2C627C35E62433399A3DC614E8CB49E6_WALL_FACE_2C627C35E62433399A3DC614E8CB49E6_Mesh
v -0.491771 3.981989 -2.971692
v -1.221121 3.981983 -4.094452
v -1.221091 0.043710 -4.094451
v -0.491741 0.043715 -2.971691
vn -0.8386 -0.0000 0.5448
s 0
f 69//27 70//27 71//27 72//27
g WALL_FACE_49EB7014A6C44E13A7C1212367B964B2_WALL_FACE_49EB7014A6C44E13A7C1212367B964B2_Mesh
v -1.221098 3.981985 -4.094439
v -4.560434 3.981985 -1.445394
v -4.560433 0.043707 -1.445393
v -1.221098 0.043707 -4.094439
vn 0.6215 -0.0000 0.7834
s 0
f 73//28 74//28 75//28 76//28
g WALL_FACE_AEB9BAE328A79A3001CAD8B353A5D679_WALL_FACE_AEB9BAE328A79A3001CAD8B353A5D679_Mesh
v 0.871779 3.982048 5.399812
v 3.915085 3.982048 2.982883
v 3.915086 0.043779 2.982884
v 0.871780 0.043779 5.399813
vn -0.6219 -0.0000 -0.7831
s 0
f 77//29 78//29 79//29 80//29
