# Blender 4.4.0
# www.blender.org
mtllib test_scene.mtl
o WALL_FACE_31DE88DD1D4CC2A2280E470B73DED2C1
v 0.374056 -0.756760 -2.787101
v -2.874202 -0.036538 -2.787106
v -2.874209 -0.036547 -0.001941
v 0.374049 -0.756769 -0.001936
vn 0.2165 0.9763 -0.0000
s 0
f 1//1 2//1 3//1 4//1
o DOOR_FRAME_4DC1D658CE42DB3B603BAF9F38028656
v 0.251897 -0.727888 -2.335205
v -2.676857 -0.077964 -2.335205
v -2.676857 -0.077963 0.014795
v 0.251897 -0.727887 0.014795
vn 0.2166 0.9763 -0.0000
s 0
f 5//2 6//2 7//2 8//2
o WALL_FACE_88409484F47B2B261616D83656B6F698
v 1.089790 2.397855 -2.787099
v 0.374051 -0.756765 -2.787099
v 0.374051 -0.756765 -0.001934
v 1.089790 2.397855 -0.001934
vn -0.9752 0.2213 -0.0000
s 0
f 9//3 10//3 11//3 12//3
o TABLE_83850B9C6190E5F1EFB72B2EFB407529
v -0.960509 1.422008 0.002661
v -1.101299 0.808425 0.002661
v -1.632152 0.930232 0.002661
v -1.491362 1.543815 0.002661
v -0.960509 1.422008 -0.650383
v -1.101299 0.808425 -0.650383
v -1.632152 0.930232 -0.650383
v -1.491362 1.543815 -0.650383
vn -0.0000 -0.0000 -1.0000
vn 0.9747 -0.2236 -0.0000
vn -0.9747 0.2236 -0.0000
vn -0.2236 -0.9747 -0.0000
s 0
f 13//4 14//4 15//4 16//4
f 17//4 18//4 19//4 20//4
f 13//5 14//5 18//5 17//5
f 15//6 16//6 20//6 19//6
f 13//7 16//7 20//7 17//7
f 14//7 15//7 19//7 18//7
o WINDOW_FRAME_46095ACAA4B4D1ADEF8F1645EF62728E
v 0.896251 1.535902 -2.124857
v 0.708012 0.707007 -2.124857
v 0.708012 0.707007 -0.274857
v 0.896251 1.535902 -0.274857
vn -0.9752 0.2215 -0.0000
s 0
f 21//8 22//8 23//8 24//8
o TABLE_F128CAE6EA7323B364E349640C573837
v -0.245099 1.321298 -0.011451
v -0.884557 1.469018 -0.011451
v -0.788543 1.884652 -0.011451
v -0.149084 1.736932 -0.011451
v -0.245099 1.321298 -0.634810
v -0.884557 1.469018 -0.634810
v -0.788543 1.884652 -0.634810
v -0.149084 1.736932 -0.634810
vn -0.0000 -0.0000 -1.0000
vn -0.2251 -0.9743 -0.0000
vn 0.2251 0.9743 -0.0000
vn -0.9743 0.2251 -0.0000
s 0
f 25//9 26//9 27//9 28//9
f 29//9 30//9 31//9 32//9
f 25//10 26//10 30//10 29//10
f 27//11 28//11 32//11 31//11
f 25//12 28//12 32//12 29//12
f 26//12 27//12 31//12 30//12
o CEILING_A67665AC94501B41E61F8F0962E8117C
v 0.374049 3.243235 -2.787098
v 1.089791 6.397854 -2.787098
v -2.144723 7.144217 -2.787098
v -2.874207 3.963465 -2.787098
vn -0.0000 -0.0000 1.0000
s 0
f 33//13 34//13 35//13 36//13
o FLOOR_D71F04653745E6CF4FB420AD603179B8
v -2.874207 -0.036535 -0.001934
v -2.144724 3.144218 -0.001934
v 1.089791 2.397855 -0.001934
v 0.374050 -0.756765 -0.001934
vn -0.0000 -0.0000 -1.0000
s 0
f 37//14 38//14 39//14 40//14
o COUCH_36CDB83C75171F5C479D10A8F5112EA7
v -1.775076 1.429639 0.015428
v -1.376499 0.460462 0.015428
v -2.209133 0.118039 0.015428
v -2.607709 1.087216 0.015428
v -1.775076 1.429639 -0.836688
v -1.376499 0.460462 -0.836688
v -2.209133 0.118039 -0.836688
v -2.607709 1.087216 -0.836688
vn -0.0000 -0.0000 -1.0000
vn 0.9248 0.3803 -0.0000
vn -0.9248 -0.3803 -0.0000
vn 0.3803 -0.9248 -0.0000
s 0
f 41//15 42//15 43//15 44//15
f 45//15 46//15 47//15 48//15
f 41//16 42//16 46//16 45//16
f 43//17 44//17 48//17 47//17
f 41//18 44//18 48//18 45//18
f 42//18 43//18 47//18 46//18
o COUCH_3F888E0C1B0AAF4E2EB5FBD71D650EB5
v 0.090759 1.429376 -0.017222
v -1.105900 1.705806 -0.017222
v -0.841179 2.851777 -0.017222
v 0.355480 2.575347 -0.017222
v 0.090759 1.429376 -0.812666
v -1.105900 1.705806 -0.812666
v -0.841179 2.851777 -0.812666
v 0.355480 2.575347 -0.812666
vn -0.0000 -0.0000 -1.0000
vn -0.2251 -0.9743 -0.0000
vn 0.2251 0.9743 -0.0000
vn -0.9743 0.2251 -0.0000
s 0
f 49//19 50//19 51//19 52//19
f 53//19 54//19 55//19 56//19
f 49//20 50//20 54//20 53//20
f 51//21 52//21 56//21 55//21
f 49//22 52//22 56//22 53//22
f 50//22 51//22 55//22 54//22
o TABLE_7DECD31E8421A9725910A9F3A6F20FFB
v -1.514396 1.775756 0.002982
v -2.123669 1.915563 0.002982
v -2.037016 2.293198 0.002982
v -1.427743 2.153391 0.002982
v -1.514396 1.775756 -0.648178
v -2.123669 1.915563 -0.648178
v -2.037016 2.293198 -0.648178
v -1.427743 2.153391 -0.648178
vn -0.0000 -0.0000 -1.0000
vn -0.2237 -0.9747 -0.0000
vn 0.2237 0.9747 -0.0000
vn -0.9747 0.2237 -0.0000
s 0
f 57//23 58//23 59//23 60//23
f 61//23 62//23 63//23 64//23
f 57//24 58//24 62//24 61//24
f 59//25 60//25 64//25 63//25
f 57//26 60//26 64//26 61//26
f 58//26 59//26 63//26 62//26
o WALL_FACE_02CF1178B88EE8A51BCA68E1BF29764F
v -2.144724 3.144218 -2.787099
v 1.089792 2.397854 -2.787099
v 1.089792 2.397854 -0.001934
v -2.144724 3.144218 -0.001934
vn -0.2248 -0.9744 -0.0000
s 0
f 65//27 66//27 67//27 68//27
o WALL_FACE_9F250EADD52A9A7E570FACAB48ED2B26
v -2.874206 -0.036535 -2.787098
v -2.144724 3.144217 -2.787098
v -2.144724 3.144217 -0.001934
v -2.874207 -0.036535 -0.001934
vn 0.9747 -0.2235 -0.0000
s 0
f 69//28 70//28 71//28 72//28
o WALL_ART_83D1B6C6696E52C2B6C8B84876FCE301
v -0.971748 2.872176 -1.774377
v -0.327260 2.723341 -1.774377
v -0.327260 2.723341 -1.278995
v -0.971748 2.872176 -1.278995
vn -0.2250 -0.9744 -0.0000
s 0
f 73//29 74//29 75//29 76//29
o COUCH_22BC5DF3A9FA46011B7B38BC088DDF47
v -1.479813 2.765088 -0.004638
v -1.002448 2.406118 -0.004638
v -1.320250 1.983500 -0.004638
v -1.797615 2.342470 -0.004638
v -1.479813 2.765088 -0.817326
v -1.002448 2.406118 -0.817326
v -1.320250 1.983500 -0.817326
v -1.797615 2.342470 -0.817326
vn -0.0000 -0.0000 -1.0000
vn 0.6010 0.7992 -0.0000
vn -0.6010 -0.7992 -0.0000
vn 0.7992 -0.6010 -0.0000
s 0
f 77//30 78//30 79//30 80//30
f 81//30 82//30 83//30 84//30
f 77//31 78//31 82//31 81//31
f 79//32 80//32 84//32 83//32
f 77//33 80//33 84//33 81//33
f 78//33 79//33 83//33 82//33
o STORAGE_969A0FA77B53E9FE81FF84AE5BE4B7BC
v -1.885700 3.084872 -1.046506
v -2.150011 1.932964 -1.046506
v -2.405503 1.991587 -1.046506
v -2.141191 3.143496 -1.046506
v -1.885700 3.084872 -1.222633
v -2.150011 1.932964 -1.222633
v -2.405503 1.991587 -1.222633
v -2.141191 3.143496 -1.222633
vn -0.0000 -0.0000 -1.0000
vn 0.9747 -0.2236 -0.0000
vn -0.9747 0.2236 -0.0000
vn -0.2236 -0.9747 -0.0000
s 0
f 85//34 86//34 87//34 88//34
f 89//34 90//34 91//34 92//34
f 85//35 86//35 90//35 89//35
f 87//36 88//36 92//36 91//36
f 85//37 88//37 92//37 89//37
f 86//37 87//37 91//37 90//37
o STORAGE_CC969A1655524A34DBD5B2E03A99CF37
v -2.029116 3.113247 -1.445627
v -2.292686 1.964597 -1.445627
v -2.410681 1.991673 -1.445627
v -2.147111 3.140322 -1.445627
v -2.029116 3.113247 -1.827347
v -2.292686 1.964597 -1.827347
v -2.410681 1.991673 -1.827347
v -2.147111 3.140322 -1.827347
vn -0.0000 -0.0000 -1.0000
vn 0.9747 -0.2236 -0.0000
vn -0.9747 0.2236 -0.0000
vn -0.2236 -0.9747 -0.0000
s 0
f 93//38 94//38 95//38 96//38
f 97//38 98//38 99//38 100//38
f 93//39 94//39 98//39 97//39
f 95//40 96//40 100//40 99//40
f 93//41 96//41 100//41 97//41
f 94//41 95//41 99//41 98//41
